ply
format ascii 1.0
comment VCGLIB generated
element vertex 716
property float x
property float y
property float z
element face 1424
property list uchar int vertex_indices
end_header
0 74.6 36.5333 
-52.4969 -53.111 36.5333 
74 4.41038e-16 -0.266667 
53.0068 -53.6068 -0.266667 
74 -6.04222e-14 36.5333 
0 -74.6 36.5333 
-52.4969 -53.111 -0.266667 
53.0068 53.6068 -0.266667 
-52.7554 53.3554 -0.266667 
-74.7111 -0.00205103 -0.266667 
0 74.6 -0.266667 
-52.7554 53.3554 36.5333 
-74.7111 -0.00205103 36.5333 
0 -74.6 -0.266667 
53.0068 -53.6068 36.5333 
53.0068 53.6068 36.5333 
-63.1495 10.0019 64.3142 
-68.0178 -2.9437e-14 17.7986 
71.3292 23.1763 70.9391 
66.8255 34.0493 213.753 
66.8255 34.0493 25.7529 
53.033 53.033 213.753 
23.1763 71.3292 25.7529 
11.7326 74.0766 25.7529 
0 75 25.7529 
-11.7326 74.0766 25.7529 
-34.0493 66.8255 213.753 
-53.033 53.033 213.753 
-60.6763 44.0839 25.7529 
-66.8255 34.0493 25.7529 
-74.0766 11.7326 25.7529 
-74.0766 -11.7326 25.7529 
-71.3292 -23.1763 25.7529 
-53.033 -53.033 25.7529 
-34.0493 -66.8255 213.753 
-11.7326 -74.0766 213.753 
23.1763 -71.3292 25.7529 
74.0766 -11.7326 75.1945 
71.7062 -11.3571 218.971 
72.6 -3.62155e-13 218.971 
69.0467 22.4346 218.971 
64.6871 32.9597 218.971 
58.7346 42.6732 218.971 
32.9597 64.6871 218.971 
42.6732 58.7346 218.971 
0 72.6 218.971 
-22.4346 69.0467 218.971 
-32.9597 64.6871 218.971 
-42.6732 58.7346 218.971 
-51.336 51.336 218.971 
-64.6871 32.9597 218.971 
-74.0766 11.7326 213.753 
-71.7062 11.3571 218.971 
-71.7062 -11.3571 218.971 
-69.0467 -22.4346 218.971 
-64.6871 -32.9597 218.971 
-32.9597 -64.6871 218.971 
11.7326 -74.0766 213.753 
22.4346 -69.0467 218.971 
11.3571 -71.7062 218.971 
32.9597 -64.6871 218.971 
66.8255 -34.0493 213.753 
64.6871 -32.9597 218.971 
42.6732 -58.7346 20.5345 
22.4346 -69.0467 20.5345 
11.3571 -71.7062 20.5345 
0 -72.6 20.5345 
-22.4346 -69.0467 20.5345 
-58.7346 -42.6732 20.5345 
-60.6763 -44.0839 25.7529 
-64.6871 -32.9597 20.5345 
-69.0467 -22.4346 20.5345 
-72.6 -3.39619e-14 20.5345 
-69.0467 22.4346 20.5345 
-42.6732 58.7346 20.5345 
-23.1763 71.3292 25.7529 
-11.3571 71.7062 20.5345 
22.4346 69.0467 20.5345 
44.0839 60.6763 25.7529 
51.336 51.336 20.5345 
42.6732 58.7346 20.5345 
58.7346 42.6732 20.5345 
60.6763 44.0839 25.7529 
69.0467 22.4346 20.5345 
71.3292 23.1763 25.7529 
75 -4.25926e-14 25.7529 
68.0178 -3.6668e-13 221.707 
64.6888 21.0186 221.707 
55.0275 39.9798 221.707 
39.9798 55.0275 221.707 
0 68.0178 221.707 
-64.6888 21.0186 221.707 
-64.6888 -21.0186 221.707 
-55.0275 -39.9798 221.707 
-42.6732 -58.7346 218.971 
0 -72.6 218.971 
0 -68.0178 221.707 
21.0186 -64.6888 221.707 
64.6888 -21.0186 221.707 
69.0467 -22.4346 218.971 
55.0275 -39.9798 17.7986 
51.336 -51.336 20.5345 
39.9798 -55.0275 17.7986 
30.8794 -60.6043 17.7986 
-11.3571 -71.7062 20.5345 
-21.0186 -64.6888 17.7986 
-30.8794 -60.6043 17.7986 
-48.0958 -48.0958 17.7986 
-55.0275 -39.9798 17.7986 
-67.1804 10.6403 17.7986 
-64.6871 32.9597 20.5345 
-30.8794 60.6043 17.7986 
10.6403 67.1804 17.7986 
48.0958 48.0958 17.7986 
64.6888 21.0186 17.7986 
68.0178 -2.9437e-14 17.7986 
19.7575 60.8074 64.3142 
0 63.9367 64.3142 
-10.0019 63.1495 64.3142 
-10.6403 67.1804 221.707 
-19.7575 60.8074 64.3142 
-37.5811 51.7259 64.3142 
-60.6043 30.8794 221.707 
-56.968 29.0267 64.3142 
-67.1804 10.6403 221.707 
-30.8794 -60.6043 221.707 
-10.0019 -63.1495 64.3142 
30.8794 -60.6043 221.707 
51.7259 -37.5811 64.3142 
60.8074 -19.7575 64.3142 
67.1804 -10.6403 221.707 
74.0766 -11.7326 213.753 
71.3292 -23.1763 175.119 
71.3292 -23.1763 67.3328 
71.3292 -23.1763 25.7529 
74.0766 11.7326 179.375 
74.0766 -11.7326 164.311 
93.4219 -11.7326 177.275 
93.4219 11.7326 177.275 
112.209 -2.95015e-13 178.376 
127.678 11.7326 169.152 
115.137 11.7326 191.237 
148.564 -11.7326 146.498 
137.163 -11.7326 176.691 
135.781 -2.36914e-13 143.246 
147.741 11.7326 110.57 
108.611 -11.7326 84.908 
107.284 -1.41121e-13 85.3267 
114.833 11.7326 74.5109 
114.575 -1.20972e-13 73.1438 
114.833 -11.7326 74.5109 
108.611 11.7326 84.908 
80.3811 -1.24013e-13 74.9823 
79.272 -1.00602e-13 60.8275 
75 -1.02602e-13 62.0369 
71.3292 23.1763 67.3328 
80.2739 -11.7326 61.7928 
147.741 -11.7326 110.57 
136.641 -11.7326 144.34 
127.678 -11.7326 169.152 
111.626 -11.7326 179.64 
115.137 -11.7326 191.237 
71.3292 -23.1763 70.9391 
74.0766 -11.7326 179.375 
80.2739 11.7326 61.7928 
148.564 11.7326 146.498 
63.1495 10.0019 64.3142 
63.1495 -10.0019 64.3142 
56.968 29.0267 64.3142 
56.968 -29.0267 64.3142 
51.7259 37.5811 64.3142 
45.2101 45.2101 64.3142 
45.2101 -45.2101 64.3142 
37.5811 51.7259 64.3142 
29.0267 56.968 64.3142 
29.0267 -56.968 64.3142 
10.0019 -63.1495 64.3142 
10.0019 63.1495 64.3142 
-29.0267 -56.968 64.3142 
-19.7575 -60.8074 64.3142 
-37.5811 -51.7259 64.3142 
-29.0267 56.968 64.3142 
-45.2101 -45.2101 64.3142 
-51.7259 -37.5811 64.3142 
-45.2101 45.2101 64.3142 
-51.7259 37.5811 64.3142 
-56.968 -29.0267 64.3142 
-60.8074 -19.7575 64.3142 
-60.8074 19.7575 64.3142 
-63.1495 -10.0019 64.3142 
67.1804 -10.6403 17.7986 
67.1804 10.6403 17.7986 
64.6888 -21.0186 17.7986 
60.6043 30.8794 17.7986 
60.6043 -30.8794 17.7986 
48.0958 -48.0958 17.7986 
30.8794 60.6043 17.7986 
39.9798 55.0275 17.7986 
10.6403 -67.1804 17.7986 
21.0186 -64.6888 17.7986 
0 68.0178 17.7986 
-10.6403 67.1804 17.7986 
0 -68.0178 17.7986 
-21.0186 64.6888 17.7986 
-10.6403 -67.1804 17.7986 
-39.9798 -55.0275 17.7986 
-48.0958 48.0958 17.7986 
-60.6043 -30.8794 17.7986 
-55.0275 39.9798 17.7986 
-64.6888 -21.0186 17.7986 
-60.6043 30.8794 17.7986 
-67.1804 -10.6403 17.7986 
-64.6888 21.0186 17.7986 
74.0766 11.7326 75.1945 
81.2203 11.7326 73.8728 
74.0766 11.7326 63.0775 
81.2203 -11.7326 73.8728 
136.467 -11.7326 115.011 
136.641 11.7326 144.34 
93.4219 -11.7326 189.392 
93.4219 11.7326 189.392 
94.3453 -2.91473e-13 176.234 
75 -3.53525e-13 213.753 
55.0275 -39.9798 221.707 
51.336 -51.336 218.971 
60.6763 -44.0839 213.753 
66.8255 -34.0493 25.7529 
58.7346 -42.6732 20.5345 
53.033 -53.033 25.7529 
44.0839 -60.6763 25.7529 
34.0493 -66.8255 25.7529 
32.9597 -64.6871 20.5345 
11.7326 -74.0766 25.7529 
-11.7326 -74.0766 25.7529 
-23.1763 -71.3292 25.7529 
-34.0493 -66.8255 25.7529 
-51.336 -51.336 20.5345 
-66.8255 -34.0493 25.7529 
-75 -4.25926e-14 25.7529 
-71.7062 -11.3571 20.5345 
-71.3292 23.1763 25.7529 
-53.033 53.033 25.7529 
-34.0493 66.8255 25.7529 
34.0493 66.8255 25.7529 
53.033 53.033 25.7529 
64.6871 32.9597 20.5345 
74.0766 11.7326 25.7529 
71.7062 11.3571 20.5345 
71.7062 -11.3571 20.5345 
72.6 -3.39619e-14 20.5345 
55.0275 39.9798 17.7986 
60.6763 44.0839 213.753 
34.0493 66.8255 213.753 
22.4346 69.0467 218.971 
11.7326 74.0766 213.753 
-11.7326 74.0766 213.753 
-58.7346 42.6732 218.971 
-60.6763 44.0839 213.753 
-69.0467 22.4346 218.971 
-74.0766 -11.7326 213.753 
-72.6 -3.62155e-13 218.971 
-71.3292 -23.1763 213.753 
-60.6763 -44.0839 213.753 
-53.033 -53.033 213.753 
0 -75 213.753 
23.1763 -71.3292 213.753 
34.0493 -66.8255 213.753 
44.0839 -60.6763 213.753 
53.033 -53.033 213.753 
19.7575 -60.8074 64.3142 
10.6403 -67.1804 221.707 
0 -63.9367 64.3142 
-10.6403 -67.1804 221.707 
-21.0186 -64.6888 221.707 
-39.9798 -55.0275 221.707 
-48.0958 -48.0958 221.707 
-63.9367 -1.06369e-13 64.3142 
-68.0178 -3.6668e-13 221.707 
-55.0275 39.9798 221.707 
-48.0958 48.0958 221.707 
-39.9798 55.0275 221.707 
-30.8794 60.6043 221.707 
-21.0186 64.6888 221.707 
21.0186 64.6888 221.707 
30.8794 60.6043 221.707 
48.0958 48.0958 221.707 
-11.3571 -71.7062 218.971 
-22.4346 -69.0467 218.971 
-51.336 -51.336 218.971 
-58.7346 -42.6732 218.971 
-60.6043 -30.8794 221.707 
-67.1804 -10.6403 221.707 
-11.3571 71.7062 218.971 
11.3571 71.7062 218.971 
10.6403 67.1804 221.707 
51.336 51.336 218.971 
60.6043 30.8794 221.707 
60.8074 19.7575 64.3142 
67.1804 10.6403 221.707 
63.9367 -1.06369e-13 64.3142 
71.7062 11.3571 218.971 
71.3292 23.1763 213.753 
74.0766 11.7326 213.753 
44.0839 60.6763 213.753 
32.9597 64.6871 20.5345 
23.1763 71.3292 213.753 
21.0186 64.6888 17.7986 
0 72.6 20.5345 
11.3571 71.7062 20.5345 
0 75 213.753 
-22.4346 69.0467 20.5345 
-23.1763 71.3292 213.753 
-32.9597 64.6871 20.5345 
-39.9798 55.0275 17.7986 
-44.0839 60.6763 213.753 
-44.0839 60.6763 25.7529 
-58.7346 42.6732 20.5345 
-51.336 51.336 20.5345 
-66.8255 34.0493 213.753 
-71.3292 23.1763 213.753 
-71.7062 11.3571 20.5345 
-75 -3.53525e-13 213.753 
-66.8255 -34.0493 213.753 
-44.0839 -60.6763 213.753 
-44.0839 -60.6763 25.7529 
-42.6732 -58.7346 20.5345 
-32.9597 -64.6871 20.5345 
-23.1763 -71.3292 213.753 
0 -75 25.7529 
69.0467 -22.4346 20.5345 
64.6871 -32.9597 20.5345 
60.6763 -44.0839 25.7529 
58.7346 -42.6732 218.971 
39.9798 -55.0275 221.707 
48.0958 -48.0958 221.707 
37.5811 -51.7259 64.3142 
42.6732 -58.7346 218.971 
60.6043 -30.8794 221.707 
94.3453 -3.14956e-13 190.433 
75 -2.98387e-13 180.415 
137.163 11.7326 176.691 
111.626 11.7326 179.64 
138.553 -2.92104e-13 176.616 
116.322 -3.1749e-13 191.965 
127.438 -2.77492e-13 167.781 
135.161 -1.89425e-13 114.533 
148.371 -1.80819e-13 109.33 
136.467 11.7326 115.011 
149.752 -2.41097e-13 145.775 
74.0766 -11.7326 25.7529 
74.0766 -11.7326 63.0775 
71.3292 -23.1763 168.566 
71.3292 -23.1763 213.753 
71.3292 23.1763 175.119 
71.3292 23.1763 168.566 
75 -1.26085e-13 76.235 
74.0766 11.7326 164.311 
75 -2.70033e-13 163.271 
0 74.6 36.5333 
-52.4969 -53.111 36.5333 
74 4.41038e-16 -0.266667 
53.0068 -53.6068 -0.266667 
74 -6.04222e-14 36.5333 
0 -74.6 36.5333 
-52.4969 -53.111 -0.266667 
53.0068 53.6068 -0.266667 
-52.7554 53.3554 -0.266667 
-74.7111 -0.00205103 -0.266667 
0 74.6 -0.266667 
-52.7554 53.3554 36.5333 
-74.7111 -0.00205103 36.5333 
0 -74.6 -0.266667 
53.0068 -53.6068 36.5333 
53.0068 53.6068 36.5333 
-63.1495 10.0019 64.3142 
-68.0178 -2.9437e-14 17.7986 
71.3292 23.1763 70.9391 
66.8255 34.0493 213.753 
66.8255 34.0493 25.7529 
53.033 53.033 213.753 
23.1763 71.3292 25.7529 
11.7326 74.0766 25.7529 
0 75 25.7529 
-11.7326 74.0766 25.7529 
-34.0493 66.8255 213.753 
-53.033 53.033 213.753 
-60.6763 44.0839 25.7529 
-66.8255 34.0493 25.7529 
-74.0766 11.7326 25.7529 
-74.0766 -11.7326 25.7529 
-71.3292 -23.1763 25.7529 
-53.033 -53.033 25.7529 
-34.0493 -66.8255 213.753 
-11.7326 -74.0766 213.753 
23.1763 -71.3292 25.7529 
74.0766 -11.7326 75.1945 
71.7062 -11.3571 218.971 
72.6 -3.62155e-13 218.971 
69.0467 22.4346 218.971 
64.6871 32.9597 218.971 
58.7346 42.6732 218.971 
32.9597 64.6871 218.971 
42.6732 58.7346 218.971 
0 72.6 218.971 
-22.4346 69.0467 218.971 
-32.9597 64.6871 218.971 
-42.6732 58.7346 218.971 
-51.336 51.336 218.971 
-64.6871 32.9597 218.971 
-74.0766 11.7326 213.753 
-71.7062 11.3571 218.971 
-71.7062 -11.3571 218.971 
-69.0467 -22.4346 218.971 
-64.6871 -32.9597 218.971 
-32.9597 -64.6871 218.971 
11.7326 -74.0766 213.753 
22.4346 -69.0467 218.971 
11.3571 -71.7062 218.971 
32.9597 -64.6871 218.971 
66.8255 -34.0493 213.753 
64.6871 -32.9597 218.971 
42.6732 -58.7346 20.5345 
22.4346 -69.0467 20.5345 
11.3571 -71.7062 20.5345 
0 -72.6 20.5345 
-22.4346 -69.0467 20.5345 
-58.7346 -42.6732 20.5345 
-60.6763 -44.0839 25.7529 
-64.6871 -32.9597 20.5345 
-69.0467 -22.4346 20.5345 
-72.6 -3.39619e-14 20.5345 
-69.0467 22.4346 20.5345 
-42.6732 58.7346 20.5345 
-23.1763 71.3292 25.7529 
-11.3571 71.7062 20.5345 
22.4346 69.0467 20.5345 
44.0839 60.6763 25.7529 
51.336 51.336 20.5345 
42.6732 58.7346 20.5345 
58.7346 42.6732 20.5345 
60.6763 44.0839 25.7529 
69.0467 22.4346 20.5345 
71.3292 23.1763 25.7529 
75 -4.25926e-14 25.7529 
68.0178 -3.6668e-13 221.707 
64.6888 21.0186 221.707 
55.0275 39.9798 221.707 
39.9798 55.0275 221.707 
0 68.0178 221.707 
-64.6888 21.0186 221.707 
-64.6888 -21.0186 221.707 
-55.0275 -39.9798 221.707 
-42.6732 -58.7346 218.971 
0 -72.6 218.971 
0 -68.0178 221.707 
21.0186 -64.6888 221.707 
64.6888 -21.0186 221.707 
69.0467 -22.4346 218.971 
55.0275 -39.9798 17.7986 
51.336 -51.336 20.5345 
39.9798 -55.0275 17.7986 
30.8794 -60.6043 17.7986 
-11.3571 -71.7062 20.5345 
-21.0186 -64.6888 17.7986 
-30.8794 -60.6043 17.7986 
-48.0958 -48.0958 17.7986 
-55.0275 -39.9798 17.7986 
-67.1804 10.6403 17.7986 
-64.6871 32.9597 20.5345 
-30.8794 60.6043 17.7986 
10.6403 67.1804 17.7986 
48.0958 48.0958 17.7986 
64.6888 21.0186 17.7986 
68.0178 -2.9437e-14 17.7986 
19.7575 60.8074 64.3142 
0 63.9367 64.3142 
-10.0019 63.1495 64.3142 
-10.6403 67.1804 221.707 
-19.7575 60.8074 64.3142 
-37.5811 51.7259 64.3142 
-60.6043 30.8794 221.707 
-56.968 29.0267 64.3142 
-67.1804 10.6403 221.707 
-30.8794 -60.6043 221.707 
-10.0019 -63.1495 64.3142 
30.8794 -60.6043 221.707 
51.7259 -37.5811 64.3142 
60.8074 -19.7575 64.3142 
67.1804 -10.6403 221.707 
74.0766 -11.7326 213.753 
71.3292 -23.1763 175.119 
71.3292 -23.1763 67.3328 
71.3292 -23.1763 25.7529 
74.0766 11.7326 179.375 
74.0766 -11.7326 164.311 
93.4219 -11.7326 177.275 
93.4219 11.7326 177.275 
112.209 -2.95015e-13 178.376 
127.678 11.7326 169.152 
115.137 11.7326 191.237 
148.564 -11.7326 146.498 
137.163 -11.7326 176.691 
135.781 -2.36914e-13 143.246 
147.741 11.7326 110.57 
108.611 -11.7326 84.908 
107.284 -1.41121e-13 85.3267 
114.833 11.7326 74.5109 
114.575 -1.20972e-13 73.1438 
114.833 -11.7326 74.5109 
108.611 11.7326 84.908 
80.3811 -1.24013e-13 74.9823 
79.272 -1.00602e-13 60.8275 
75 -1.02602e-13 62.0369 
71.3292 23.1763 67.3328 
80.2739 -11.7326 61.7928 
147.741 -11.7326 110.57 
136.641 -11.7326 144.34 
127.678 -11.7326 169.152 
111.626 -11.7326 179.64 
115.137 -11.7326 191.237 
71.3292 -23.1763 70.9391 
74.0766 -11.7326 179.375 
80.2739 11.7326 61.7928 
148.564 11.7326 146.498 
63.1495 10.0019 64.3142 
63.1495 -10.0019 64.3142 
56.968 29.0267 64.3142 
56.968 -29.0267 64.3142 
51.7259 37.5811 64.3142 
45.2101 45.2101 64.3142 
45.2101 -45.2101 64.3142 
37.5811 51.7259 64.3142 
29.0267 56.968 64.3142 
29.0267 -56.968 64.3142 
10.0019 -63.1495 64.3142 
10.0019 63.1495 64.3142 
-29.0267 -56.968 64.3142 
-19.7575 -60.8074 64.3142 
-37.5811 -51.7259 64.3142 
-29.0267 56.968 64.3142 
-45.2101 -45.2101 64.3142 
-51.7259 -37.5811 64.3142 
-45.2101 45.2101 64.3142 
-51.7259 37.5811 64.3142 
-56.968 -29.0267 64.3142 
-60.8074 -19.7575 64.3142 
-60.8074 19.7575 64.3142 
-63.1495 -10.0019 64.3142 
67.1804 -10.6403 17.7986 
67.1804 10.6403 17.7986 
64.6888 -21.0186 17.7986 
60.6043 30.8794 17.7986 
60.6043 -30.8794 17.7986 
48.0958 -48.0958 17.7986 
30.8794 60.6043 17.7986 
39.9798 55.0275 17.7986 
10.6403 -67.1804 17.7986 
21.0186 -64.6888 17.7986 
0 68.0178 17.7986 
-10.6403 67.1804 17.7986 
0 -68.0178 17.7986 
-21.0186 64.6888 17.7986 
-10.6403 -67.1804 17.7986 
-39.9798 -55.0275 17.7986 
-48.0958 48.0958 17.7986 
-60.6043 -30.8794 17.7986 
-55.0275 39.9798 17.7986 
-64.6888 -21.0186 17.7986 
-60.6043 30.8794 17.7986 
-67.1804 -10.6403 17.7986 
-64.6888 21.0186 17.7986 
74.0766 11.7326 75.1945 
81.2203 11.7326 73.8728 
74.0766 11.7326 63.0775 
81.2203 -11.7326 73.8728 
136.467 -11.7326 115.011 
136.641 11.7326 144.34 
93.4219 -11.7326 189.392 
93.4219 11.7326 189.392 
94.3453 -2.91473e-13 176.234 
75 -3.53525e-13 213.753 
55.0275 -39.9798 221.707 
51.336 -51.336 218.971 
60.6763 -44.0839 213.753 
66.8255 -34.0493 25.7529 
58.7346 -42.6732 20.5345 
53.033 -53.033 25.7529 
44.0839 -60.6763 25.7529 
34.0493 -66.8255 25.7529 
32.9597 -64.6871 20.5345 
11.7326 -74.0766 25.7529 
-11.7326 -74.0766 25.7529 
-23.1763 -71.3292 25.7529 
-34.0493 -66.8255 25.7529 
-51.336 -51.336 20.5345 
-66.8255 -34.0493 25.7529 
-75 -4.25926e-14 25.7529 
-71.7062 -11.3571 20.5345 
-71.3292 23.1763 25.7529 
-53.033 53.033 25.7529 
-34.0493 66.8255 25.7529 
34.0493 66.8255 25.7529 
53.033 53.033 25.7529 
64.6871 32.9597 20.5345 
74.0766 11.7326 25.7529 
71.7062 11.3571 20.5345 
71.7062 -11.3571 20.5345 
72.6 -3.39619e-14 20.5345 
55.0275 39.9798 17.7986 
60.6763 44.0839 213.753 
34.0493 66.8255 213.753 
22.4346 69.0467 218.971 
11.7326 74.0766 213.753 
-11.7326 74.0766 213.753 
-58.7346 42.6732 218.971 
-60.6763 44.0839 213.753 
-69.0467 22.4346 218.971 
-74.0766 -11.7326 213.753 
-72.6 -3.62155e-13 218.971 
-71.3292 -23.1763 213.753 
-60.6763 -44.0839 213.753 
-53.033 -53.033 213.753 
0 -75 213.753 
23.1763 -71.3292 213.753 
34.0493 -66.8255 213.753 
44.0839 -60.6763 213.753 
53.033 -53.033 213.753 
19.7575 -60.8074 64.3142 
10.6403 -67.1804 221.707 
0 -63.9367 64.3142 
-10.6403 -67.1804 221.707 
-21.0186 -64.6888 221.707 
-39.9798 -55.0275 221.707 
-48.0958 -48.0958 221.707 
-63.9367 -1.06369e-13 64.3142 
-68.0178 -3.6668e-13 221.707 
-55.0275 39.9798 221.707 
-48.0958 48.0958 221.707 
-39.9798 55.0275 221.707 
-30.8794 60.6043 221.707 
-21.0186 64.6888 221.707 
21.0186 64.6888 221.707 
30.8794 60.6043 221.707 
48.0958 48.0958 221.707 
-11.3571 -71.7062 218.971 
-22.4346 -69.0467 218.971 
-51.336 -51.336 218.971 
-58.7346 -42.6732 218.971 
-60.6043 -30.8794 221.707 
-67.1804 -10.6403 221.707 
-11.3571 71.7062 218.971 
11.3571 71.7062 218.971 
10.6403 67.1804 221.707 
51.336 51.336 218.971 
60.6043 30.8794 221.707 
60.8074 19.7575 64.3142 
67.1804 10.6403 221.707 
63.9367 -1.06369e-13 64.3142 
71.7062 11.3571 218.971 
71.3292 23.1763 213.753 
74.0766 11.7326 213.753 
44.0839 60.6763 213.753 
32.9597 64.6871 20.5345 
23.1763 71.3292 213.753 
21.0186 64.6888 17.7986 
0 72.6 20.5345 
11.3571 71.7062 20.5345 
0 75 213.753 
-22.4346 69.0467 20.5345 
-23.1763 71.3292 213.753 
-32.9597 64.6871 20.5345 
-39.9798 55.0275 17.7986 
-44.0839 60.6763 213.753 
-44.0839 60.6763 25.7529 
-58.7346 42.6732 20.5345 
-51.336 51.336 20.5345 
-66.8255 34.0493 213.753 
-71.3292 23.1763 213.753 
-71.7062 11.3571 20.5345 
-75 -3.53525e-13 213.753 
-66.8255 -34.0493 213.753 
-44.0839 -60.6763 213.753 
-44.0839 -60.6763 25.7529 
-42.6732 -58.7346 20.5345 
-32.9597 -64.6871 20.5345 
-23.1763 -71.3292 213.753 
0 -75 25.7529 
69.0467 -22.4346 20.5345 
64.6871 -32.9597 20.5345 
60.6763 -44.0839 25.7529 
58.7346 -42.6732 218.971 
39.9798 -55.0275 221.707 
48.0958 -48.0958 221.707 
37.5811 -51.7259 64.3142 
42.6732 -58.7346 218.971 
60.6043 -30.8794 221.707 
94.3453 -3.14956e-13 190.433 
75 -2.98387e-13 180.415 
137.163 11.7326 176.691 
111.626 11.7326 179.64 
138.553 -2.92104e-13 176.616 
116.322 -3.1749e-13 191.965 
127.438 -2.77492e-13 167.781 
135.161 -1.89425e-13 114.533 
148.371 -1.80819e-13 109.33 
136.467 11.7326 115.011 
149.752 -2.41097e-13 145.775 
74.0766 -11.7326 25.7529 
74.0766 -11.7326 63.0775 
71.3292 -23.1763 168.566 
71.3292 -23.1763 213.753 
71.3292 23.1763 175.119 
71.3292 23.1763 168.566 
75 -1.26085e-13 76.235 
74.0766 11.7326 164.311 
75 -2.70033e-13 163.271 
3 14 4 5 
3 5 4 1 
3 0 4 15 
3 1 4 12 
3 12 0 11 
3 12 4 0 
3 3 2 4 
3 3 4 14 
3 6 5 1 
3 6 13 5 
3 0 7 10 
3 15 7 0 
3 8 10 9 
3 7 2 10 
3 10 2 9 
3 13 2 3 
3 6 2 13 
3 9 2 6 
3 12 8 9 
3 11 8 12 
3 0 10 11 
3 11 10 8 
3 9 1 12 
3 9 6 1 
3 13 14 5 
3 13 3 14 
3 4 2 15 
3 15 2 7 
3 189 16 276 
3 17 109 211 
3 356 357 213 
3 354 213 18 
3 19 20 82 
3 21 82 244 
3 21 244 78 
3 252 78 243 
3 252 243 22 
3 254 22 23 
3 254 23 24 
3 255 24 25 
3 255 25 75 
3 26 75 242 
3 26 242 315 
3 27 315 241 
3 27 241 28 
3 318 28 29 
3 318 29 240 
3 51 240 30 
3 51 30 238 
3 238 31 259 
3 31 32 259 
3 32 237 322 
3 237 69 322 
3 69 33 263 
3 33 324 263 
3 324 235 34 
3 235 234 34 
3 234 233 35 
3 233 328 35 
3 328 232 57 
3 232 36 57 
3 36 230 266 
3 230 229 266 
3 229 228 268 
3 228 331 268 
3 331 226 61 
3 162 37 351 
3 37 355 136 
3 38 131 39 
3 39 302 300 
3 300 302 40 
3 41 40 19 
3 41 19 42 
3 295 42 21 
3 295 21 44 
3 43 44 252 
3 43 252 253 
3 293 253 254 
3 293 254 45 
3 292 45 255 
3 46 292 255 
3 47 46 26 
3 48 47 26 
3 49 48 27 
3 256 49 27 
3 50 256 318 
3 258 50 318 
3 52 258 51 
3 260 52 51 
3 259 53 260 
3 259 54 53 
3 322 55 54 
3 322 289 55 
3 263 288 289 
3 263 94 288 
3 34 56 94 
3 34 287 56 
3 35 286 287 
3 35 95 286 
3 95 57 59 
3 57 58 59 
3 58 266 60 
3 266 336 60 
3 336 268 224 
3 268 332 224 
3 332 61 62 
3 61 99 62 
3 99 131 38 
3 249 85 248 
3 329 248 134 
3 329 134 330 
3 227 330 331 
3 227 331 101 
3 63 101 229 
3 63 229 231 
3 64 231 36 
3 64 36 65 
3 66 65 328 
3 104 66 328 
3 67 104 234 
3 326 67 234 
3 325 326 324 
3 236 325 324 
3 68 236 69 
3 70 68 69 
3 71 70 32 
3 239 71 32 
3 72 239 238 
3 238 320 72 
3 240 73 320 
3 240 110 73 
3 28 316 110 
3 28 317 316 
3 315 74 317 
3 315 312 74 
3 75 310 312 
3 75 76 310 
3 24 307 76 
3 24 308 307 
3 308 22 77 
3 22 304 77 
3 304 78 80 
3 78 79 80 
3 79 82 81 
3 82 245 81 
3 245 84 83 
3 84 247 83 
3 247 85 249 
3 130 39 86 
3 86 39 298 
3 298 40 87 
3 87 40 296 
3 88 296 42 
3 88 42 285 
3 89 285 44 
3 89 44 284 
3 283 284 253 
3 283 253 294 
3 90 294 45 
3 90 45 119 
3 282 119 46 
3 281 282 46 
3 280 281 48 
3 279 280 48 
3 278 279 256 
3 122 278 256 
3 91 122 258 
3 124 91 258 
3 277 124 260 
3 260 291 277 
3 54 92 291 
3 54 290 92 
3 289 93 290 
3 289 275 93 
3 94 274 275 
3 94 125 274 
3 287 273 125 
3 287 272 273 
3 272 95 96 
3 95 270 96 
3 270 58 97 
3 58 127 97 
3 127 336 333 
3 336 334 333 
3 334 332 223 
3 332 337 223 
3 337 99 98 
3 98 99 130 
3 115 248 190 
3 190 248 192 
3 194 192 330 
3 194 330 100 
3 195 100 101 
3 195 101 102 
3 103 102 231 
3 103 231 199 
3 198 199 65 
3 198 65 202 
3 204 202 104 
3 105 204 104 
3 106 105 326 
3 205 106 326 
3 107 205 236 
3 108 107 236 
3 207 108 70 
3 209 207 70 
3 211 209 239 
3 17 211 239 
3 320 109 17 
3 320 212 109 
3 110 210 212 
3 110 208 210 
3 317 206 208 
3 317 313 206 
3 312 111 313 
3 312 203 111 
3 76 201 203 
3 76 200 201 
3 200 308 112 
3 308 306 112 
3 306 304 196 
3 304 197 196 
3 197 79 113 
3 79 250 113 
3 250 245 193 
3 245 114 193 
3 114 247 191 
3 191 247 115 
3 167 130 299 
3 299 298 166 
3 166 298 297 
3 168 297 296 
3 168 296 170 
3 171 170 285 
3 171 285 173 
3 174 173 284 
3 174 284 116 
3 177 116 294 
3 177 294 117 
3 118 117 119 
3 120 118 119 
3 181 120 281 
3 121 181 281 
3 184 121 279 
3 185 184 279 
3 123 185 122 
3 188 123 122 
3 16 188 124 
3 276 16 124 
3 291 189 276 
3 291 187 189 
3 290 186 187 
3 290 183 186 
3 275 182 183 
3 275 180 182 
3 125 178 180 
3 125 179 178 
3 272 126 179 
3 272 271 126 
3 271 270 176 
3 270 269 176 
3 269 127 175 
3 127 335 175 
3 335 334 172 
3 334 128 172 
3 128 337 169 
3 337 129 169 
3 129 130 167 
3 302 339 135 
3 349 154 350 
3 163 339 131 
3 215 246 155 
3 302 135 353 
3 132 163 131 
3 134 350 133 
3 154 85 215 
3 226 134 133 
3 301 353 19 
3 339 220 135 
3 163 219 339 
3 136 221 137 
3 138 221 357 
3 341 139 221 
3 220 343 141 
3 221 139 160 
3 161 343 219 
3 161 143 343 
3 341 140 344 
3 343 340 141 
3 344 159 160 
3 142 348 143 
3 340 348 165 
3 144 158 344 
3 344 218 144 
3 217 158 345 
3 345 218 347 
3 165 348 145 
3 157 348 142 
3 149 157 150 
3 148 145 149 
3 146 345 147 
3 147 345 151 
3 164 148 149 
3 149 150 156 
3 216 146 152 
3 152 151 214 
3 154 164 153 
3 152 214 213 
3 153 156 154 
3 37 216 152 
3 351 163 132 
3 18 213 155 
3 156 150 146 
3 158 143 159 
3 150 157 146 
3 217 157 158 
3 159 143 160 
3 136 137 351 
3 160 161 219 
3 133 37 162 
3 350 156 133 
3 163 137 219 
3 214 151 164 
3 340 165 218 
3 151 145 148 
3 218 165 145 
3 341 340 140 
3 354 138 356 
3 220 141 341 
3 155 164 215 
3 220 138 135 
3 353 135 354 
3 129 166 297 
3 167 299 166 
3 167 166 129 
3 169 297 168 
3 129 297 169 
3 128 168 170 
3 169 168 128 
3 172 170 171 
3 128 170 172 
3 335 171 173 
3 172 171 335 
3 175 173 174 
3 335 173 175 
3 269 174 116 
3 175 174 269 
3 176 116 177 
3 269 116 176 
3 271 177 117 
3 176 177 271 
3 126 117 118 
3 271 117 126 
3 179 118 120 
3 126 118 179 
3 178 120 181 
3 179 120 178 
3 180 181 121 
3 178 181 180 
3 182 121 184 
3 180 121 182 
3 183 184 185 
3 182 184 183 
3 186 185 123 
3 183 185 186 
3 187 123 188 
3 186 123 187 
3 189 188 16 
3 187 188 189 
3 114 190 192 
3 114 191 190 
3 191 115 190 
3 193 192 194 
3 193 114 192 
3 250 194 100 
3 250 193 194 
3 113 100 195 
3 113 250 100 
3 197 195 102 
3 197 113 195 
3 196 102 103 
3 196 197 102 
3 306 103 199 
3 306 196 103 
3 112 199 198 
3 112 306 199 
3 200 198 202 
3 200 112 198 
3 201 202 204 
3 201 200 202 
3 203 204 105 
3 203 201 204 
3 111 105 106 
3 111 203 105 
3 313 106 205 
3 313 111 106 
3 206 205 107 
3 206 313 205 
3 208 107 108 
3 208 206 107 
3 210 108 207 
3 210 208 108 
3 212 207 209 
3 212 210 207 
3 109 209 211 
3 109 212 209 
3 357 355 213 
3 213 214 155 
3 155 214 164 
3 215 164 154 
3 154 156 350 
3 156 216 133 
3 133 216 37 
3 37 152 355 
3 152 146 147 
3 146 157 217 
3 149 346 157 
3 145 346 149 
3 347 145 151 
3 345 347 151 
3 345 158 144 
3 158 142 143 
3 143 348 342 
3 342 348 340 
3 140 340 218 
3 140 218 344 
3 139 344 160 
3 137 160 219 
3 219 343 338 
3 338 343 220 
3 220 341 138 
3 138 341 221 
3 339 338 220 
3 131 339 222 
3 132 131 352 
3 352 131 99 
3 99 38 130 
3 98 130 129 
3 337 98 129 
3 223 337 128 
3 334 223 128 
3 224 332 334 
3 225 61 332 
3 331 61 225 
3 330 226 331 
3 100 330 227 
3 100 227 101 
3 101 228 229 
3 231 229 230 
3 231 230 36 
3 65 36 232 
3 65 232 328 
3 104 328 233 
3 234 104 233 
3 326 234 235 
3 324 326 235 
3 236 324 33 
3 69 236 33 
3 70 69 237 
3 32 70 237 
3 239 32 31 
3 238 239 31 
3 30 320 238 
3 30 240 320 
3 29 110 240 
3 29 28 110 
3 241 317 28 
3 241 315 317 
3 242 312 315 
3 242 75 312 
3 25 76 75 
3 25 24 76 
3 24 23 308 
3 23 22 308 
3 22 243 304 
3 243 78 304 
3 78 244 79 
3 244 82 79 
3 82 20 245 
3 20 84 245 
3 84 246 247 
3 246 85 247 
3 248 85 349 
3 248 349 134 
3 192 248 329 
3 115 249 248 
3 247 249 115 
3 83 247 114 
3 245 83 114 
3 81 245 250 
3 251 19 82 
3 40 301 19 
3 296 40 41 
3 296 41 42 
3 42 251 21 
3 44 21 303 
3 44 303 252 
3 253 252 305 
3 253 305 254 
3 45 254 309 
3 45 309 255 
3 46 255 311 
3 26 46 311 
3 48 26 314 
3 27 48 314 
3 256 27 257 
3 318 256 257 
3 258 318 319 
3 51 258 319 
3 321 260 51 
3 259 260 321 
3 261 54 259 
3 261 322 54 
3 262 289 322 
3 262 263 289 
3 323 94 263 
3 323 34 94 
3 327 287 34 
3 327 35 287 
3 35 264 95 
3 264 57 95 
3 57 265 58 
3 265 266 58 
3 266 267 336 
3 267 268 336 
3 60 336 127 
3 127 333 335 
3 97 127 269 
3 270 97 269 
3 96 270 271 
3 96 271 272 
3 273 272 179 
3 273 179 125 
3 274 125 180 
3 274 180 275 
3 93 275 183 
3 93 183 290 
3 92 290 187 
3 92 187 291 
3 291 276 277 
3 277 276 124 
3 124 188 91 
3 188 122 91 
3 122 185 278 
3 185 279 278 
3 279 121 280 
3 121 281 280 
3 281 120 282 
3 120 119 282 
3 119 117 90 
3 117 294 90 
3 116 283 294 
3 116 284 283 
3 173 89 284 
3 173 285 89 
3 170 88 285 
3 58 60 127 
3 59 58 270 
3 95 59 270 
3 286 95 272 
3 286 272 287 
3 56 287 125 
3 56 125 94 
3 288 94 275 
3 288 275 289 
3 55 289 290 
3 55 290 54 
3 54 291 53 
3 53 291 260 
3 260 124 52 
3 52 124 258 
3 258 122 50 
3 122 256 50 
3 256 279 49 
3 279 48 49 
3 48 281 47 
3 281 46 47 
3 46 119 292 
3 119 45 292 
3 294 293 45 
3 294 253 293 
3 284 43 253 
3 284 44 43 
3 285 295 44 
3 285 42 295 
3 170 296 88 
3 297 87 296 
3 297 298 87 
3 299 86 298 
3 298 39 300 
3 39 222 302 
3 301 302 353 
3 298 300 40 
3 40 302 301 
3 42 19 251 
3 251 82 21 
3 79 81 250 
3 80 79 197 
3 303 21 78 
3 303 78 252 
3 304 80 197 
3 77 304 306 
3 305 252 22 
3 305 22 254 
3 308 77 306 
3 307 308 200 
3 309 254 24 
3 309 24 255 
3 307 200 76 
3 310 76 203 
3 311 255 75 
3 311 75 26 
3 310 203 312 
3 74 312 313 
3 314 26 315 
3 314 315 27 
3 74 313 317 
3 316 317 208 
3 257 27 28 
3 257 28 318 
3 316 208 110 
3 73 110 212 
3 319 318 240 
3 319 240 51 
3 73 212 320 
3 320 17 72 
3 321 51 238 
3 238 259 321 
3 72 17 239 
3 239 209 71 
3 259 32 261 
3 32 322 261 
3 209 70 71 
3 70 108 68 
3 322 69 262 
3 69 263 262 
3 108 236 68 
3 236 205 325 
3 263 324 323 
3 324 34 323 
3 205 326 325 
3 326 105 67 
3 34 234 327 
3 234 35 327 
3 105 104 67 
3 104 202 66 
3 35 328 264 
3 328 57 264 
3 202 65 66 
3 199 64 65 
3 57 36 265 
3 36 266 265 
3 199 231 64 
3 102 63 231 
3 266 229 267 
3 229 268 267 
3 102 101 63 
3 192 329 330 
3 330 134 226 
3 101 331 228 
3 268 331 225 
3 268 225 332 
3 333 334 335 
3 336 224 334 
3 332 62 337 
3 130 86 299 
3 38 39 130 
3 62 99 337 
3 61 352 99 
3 131 222 39 
3 222 339 302 
3 219 338 339 
3 221 160 137 
3 341 344 139 
3 343 342 340 
3 141 340 341 
3 160 143 161 
3 143 342 343 
3 344 158 159 
3 144 218 345 
3 145 348 346 
3 218 145 347 
3 157 142 158 
3 346 348 157 
3 146 217 345 
3 147 151 152 
3 351 37 136 
3 351 137 163 
3 134 349 350 
3 226 351 61 
3 61 351 132 
3 61 132 352 
3 226 133 162 
3 226 162 351 
3 156 146 216 
3 153 149 156 
3 349 85 154 
3 215 85 246 
3 164 149 153 
3 151 148 164 
3 18 155 20 
3 155 84 20 
3 354 18 20 
3 353 354 19 
3 19 354 20 
3 155 246 84 
3 355 152 213 
3 356 213 354 
3 135 138 354 
3 356 138 357 
3 357 221 136 
3 136 355 357 
3 372 362 363 
3 363 362 359 
3 358 362 373 
3 359 362 370 
3 370 358 369 
3 370 362 358 
3 361 360 362 
3 361 362 372 
3 364 363 359 
3 364 371 363 
3 358 365 368 
3 373 365 358 
3 366 368 367 
3 365 360 368 
3 368 360 367 
3 371 360 361 
3 364 360 371 
3 367 360 364 
3 370 366 367 
3 369 366 370 
3 358 368 369 
3 369 368 366 
3 367 359 370 
3 367 364 359 
3 371 372 363 
3 371 361 372 
3 362 360 373 
3 373 360 365 
3 547 374 634 
3 375 467 569 
3 714 715 571 
3 712 571 376 
3 377 378 440 
3 379 440 602 
3 379 602 436 
3 610 436 601 
3 610 601 380 
3 612 380 381 
3 612 381 382 
3 613 382 383 
3 613 383 433 
3 384 433 600 
3 384 600 673 
3 385 673 599 
3 385 599 386 
3 676 386 387 
3 676 387 598 
3 409 598 388 
3 409 388 596 
3 596 389 617 
3 389 390 617 
3 390 595 680 
3 595 427 680 
3 427 391 621 
3 391 682 621 
3 682 593 392 
3 593 592 392 
3 592 591 393 
3 591 686 393 
3 686 590 415 
3 590 394 415 
3 394 588 624 
3 588 587 624 
3 587 586 626 
3 586 689 626 
3 689 584 419 
3 520 395 709 
3 395 713 494 
3 396 489 397 
3 397 660 658 
3 658 660 398 
3 399 398 377 
3 399 377 400 
3 653 400 379 
3 653 379 402 
3 401 402 610 
3 401 610 611 
3 651 611 612 
3 651 612 403 
3 650 403 613 
3 404 650 613 
3 405 404 384 
3 406 405 384 
3 407 406 385 
3 614 407 385 
3 408 614 676 
3 616 408 676 
3 410 616 409 
3 618 410 409 
3 617 411 618 
3 617 412 411 
3 680 413 412 
3 680 647 413 
3 621 646 647 
3 621 452 646 
3 392 414 452 
3 392 645 414 
3 393 644 645 
3 393 453 644 
3 453 415 417 
3 415 416 417 
3 416 624 418 
3 624 694 418 
3 694 626 582 
3 626 690 582 
3 690 419 420 
3 419 457 420 
3 457 489 396 
3 607 443 606 
3 687 606 492 
3 687 492 688 
3 585 688 689 
3 585 689 459 
3 421 459 587 
3 421 587 589 
3 422 589 394 
3 422 394 423 
3 424 423 686 
3 462 424 686 
3 425 462 592 
3 684 425 592 
3 683 684 682 
3 594 683 682 
3 426 594 427 
3 428 426 427 
3 429 428 390 
3 597 429 390 
3 430 597 596 
3 596 678 430 
3 598 431 678 
3 598 468 431 
3 386 674 468 
3 386 675 674 
3 673 432 675 
3 673 670 432 
3 433 668 670 
3 433 434 668 
3 382 665 434 
3 382 666 665 
3 666 380 435 
3 380 662 435 
3 662 436 438 
3 436 437 438 
3 437 440 439 
3 440 603 439 
3 603 442 441 
3 442 605 441 
3 605 443 607 
3 488 397 444 
3 444 397 656 
3 656 398 445 
3 445 398 654 
3 446 654 400 
3 446 400 643 
3 447 643 402 
3 447 402 642 
3 641 642 611 
3 641 611 652 
3 448 652 403 
3 448 403 477 
3 640 477 404 
3 639 640 404 
3 638 639 406 
3 637 638 406 
3 636 637 614 
3 480 636 614 
3 449 480 616 
3 482 449 616 
3 635 482 618 
3 618 649 635 
3 412 450 649 
3 412 648 450 
3 647 451 648 
3 647 633 451 
3 452 632 633 
3 452 483 632 
3 645 631 483 
3 645 630 631 
3 630 453 454 
3 453 628 454 
3 628 416 455 
3 416 485 455 
3 485 694 691 
3 694 692 691 
3 692 690 581 
3 690 695 581 
3 695 457 456 
3 456 457 488 
3 473 606 548 
3 548 606 550 
3 552 550 688 
3 552 688 458 
3 553 458 459 
3 553 459 460 
3 461 460 589 
3 461 589 557 
3 556 557 423 
3 556 423 560 
3 562 560 462 
3 463 562 462 
3 464 463 684 
3 563 464 684 
3 465 563 594 
3 466 465 594 
3 565 466 428 
3 567 565 428 
3 569 567 597 
3 375 569 597 
3 678 467 375 
3 678 570 467 
3 468 568 570 
3 468 566 568 
3 675 564 566 
3 675 671 564 
3 670 469 671 
3 670 561 469 
3 434 559 561 
3 434 558 559 
3 558 666 470 
3 666 664 470 
3 664 662 554 
3 662 555 554 
3 555 437 471 
3 437 608 471 
3 608 603 551 
3 603 472 551 
3 472 605 549 
3 549 605 473 
3 525 488 657 
3 657 656 524 
3 524 656 655 
3 526 655 654 
3 526 654 528 
3 529 528 643 
3 529 643 531 
3 532 531 642 
3 532 642 474 
3 535 474 652 
3 535 652 475 
3 476 475 477 
3 478 476 477 
3 539 478 639 
3 479 539 639 
3 542 479 637 
3 543 542 637 
3 481 543 480 
3 546 481 480 
3 374 546 482 
3 634 374 482 
3 649 547 634 
3 649 545 547 
3 648 544 545 
3 648 541 544 
3 633 540 541 
3 633 538 540 
3 483 536 538 
3 483 537 536 
3 630 484 537 
3 630 629 484 
3 629 628 534 
3 628 627 534 
3 627 485 533 
3 485 693 533 
3 693 692 530 
3 692 486 530 
3 486 695 527 
3 695 487 527 
3 487 488 525 
3 660 697 493 
3 707 512 708 
3 521 697 489 
3 573 604 513 
3 660 493 711 
3 490 521 489 
3 492 708 491 
3 512 443 573 
3 584 492 491 
3 659 711 377 
3 697 578 493 
3 521 577 697 
3 494 579 495 
3 496 579 715 
3 699 497 579 
3 578 701 499 
3 579 497 518 
3 519 701 577 
3 519 501 701 
3 699 498 702 
3 701 698 499 
3 702 517 518 
3 500 706 501 
3 698 706 523 
3 502 516 702 
3 702 576 502 
3 575 516 703 
3 703 576 705 
3 523 706 503 
3 515 706 500 
3 507 515 508 
3 506 503 507 
3 504 703 505 
3 505 703 509 
3 522 506 507 
3 507 508 514 
3 574 504 510 
3 510 509 572 
3 512 522 511 
3 510 572 571 
3 511 514 512 
3 395 574 510 
3 709 521 490 
3 376 571 513 
3 514 508 504 
3 516 501 517 
3 508 515 504 
3 575 515 516 
3 517 501 518 
3 494 495 709 
3 518 519 577 
3 491 395 520 
3 708 514 491 
3 521 495 577 
3 572 509 522 
3 698 523 576 
3 509 503 506 
3 576 523 503 
3 699 698 498 
3 712 496 714 
3 578 499 699 
3 513 522 573 
3 578 496 493 
3 711 493 712 
3 487 524 655 
3 525 657 524 
3 525 524 487 
3 527 655 526 
3 487 655 527 
3 486 526 528 
3 527 526 486 
3 530 528 529 
3 486 528 530 
3 693 529 531 
3 530 529 693 
3 533 531 532 
3 693 531 533 
3 627 532 474 
3 533 532 627 
3 534 474 535 
3 627 474 534 
3 629 535 475 
3 534 535 629 
3 484 475 476 
3 629 475 484 
3 537 476 478 
3 484 476 537 
3 536 478 539 
3 537 478 536 
3 538 539 479 
3 536 539 538 
3 540 479 542 
3 538 479 540 
3 541 542 543 
3 540 542 541 
3 544 543 481 
3 541 543 544 
3 545 481 546 
3 544 481 545 
3 547 546 374 
3 545 546 547 
3 472 548 550 
3 472 549 548 
3 549 473 548 
3 551 550 552 
3 551 472 550 
3 608 552 458 
3 608 551 552 
3 471 458 553 
3 471 608 458 
3 555 553 460 
3 555 471 553 
3 554 460 461 
3 554 555 460 
3 664 461 557 
3 664 554 461 
3 470 557 556 
3 470 664 557 
3 558 556 560 
3 558 470 556 
3 559 560 562 
3 559 558 560 
3 561 562 463 
3 561 559 562 
3 469 463 464 
3 469 561 463 
3 671 464 563 
3 671 469 464 
3 564 563 465 
3 564 671 563 
3 566 465 466 
3 566 564 465 
3 568 466 565 
3 568 566 466 
3 570 565 567 
3 570 568 565 
3 467 567 569 
3 467 570 567 
3 715 713 571 
3 571 572 513 
3 513 572 522 
3 573 522 512 
3 512 514 708 
3 514 574 491 
3 491 574 395 
3 395 510 713 
3 510 504 505 
3 504 515 575 
3 507 704 515 
3 503 704 507 
3 705 503 509 
3 703 705 509 
3 703 516 502 
3 516 500 501 
3 501 706 700 
3 700 706 698 
3 498 698 576 
3 498 576 702 
3 497 702 518 
3 495 518 577 
3 577 701 696 
3 696 701 578 
3 578 699 496 
3 496 699 579 
3 697 696 578 
3 489 697 580 
3 490 489 710 
3 710 489 457 
3 457 396 488 
3 456 488 487 
3 695 456 487 
3 581 695 486 
3 692 581 486 
3 582 690 692 
3 583 419 690 
3 689 419 583 
3 688 584 689 
3 458 688 585 
3 458 585 459 
3 459 586 587 
3 589 587 588 
3 589 588 394 
3 423 394 590 
3 423 590 686 
3 462 686 591 
3 592 462 591 
3 684 592 593 
3 682 684 593 
3 594 682 391 
3 427 594 391 
3 428 427 595 
3 390 428 595 
3 597 390 389 
3 596 597 389 
3 388 678 596 
3 388 598 678 
3 387 468 598 
3 387 386 468 
3 599 675 386 
3 599 673 675 
3 600 670 673 
3 600 433 670 
3 383 434 433 
3 383 382 434 
3 382 381 666 
3 381 380 666 
3 380 601 662 
3 601 436 662 
3 436 602 437 
3 602 440 437 
3 440 378 603 
3 378 442 603 
3 442 604 605 
3 604 443 605 
3 606 443 707 
3 606 707 492 
3 550 606 687 
3 473 607 606 
3 605 607 473 
3 441 605 472 
3 603 441 472 
3 439 603 608 
3 609 377 440 
3 398 659 377 
3 654 398 399 
3 654 399 400 
3 400 609 379 
3 402 379 661 
3 402 661 610 
3 611 610 663 
3 611 663 612 
3 403 612 667 
3 403 667 613 
3 404 613 669 
3 384 404 669 
3 406 384 672 
3 385 406 672 
3 614 385 615 
3 676 614 615 
3 616 676 677 
3 409 616 677 
3 679 618 409 
3 617 618 679 
3 619 412 617 
3 619 680 412 
3 620 647 680 
3 620 621 647 
3 681 452 621 
3 681 392 452 
3 685 645 392 
3 685 393 645 
3 393 622 453 
3 622 415 453 
3 415 623 416 
3 623 624 416 
3 624 625 694 
3 625 626 694 
3 418 694 485 
3 485 691 693 
3 455 485 627 
3 628 455 627 
3 454 628 629 
3 454 629 630 
3 631 630 537 
3 631 537 483 
3 632 483 538 
3 632 538 633 
3 451 633 541 
3 451 541 648 
3 450 648 545 
3 450 545 649 
3 649 634 635 
3 635 634 482 
3 482 546 449 
3 546 480 449 
3 480 543 636 
3 543 637 636 
3 637 479 638 
3 479 639 638 
3 639 478 640 
3 478 477 640 
3 477 475 448 
3 475 652 448 
3 474 641 652 
3 474 642 641 
3 531 447 642 
3 531 643 447 
3 528 446 643 
3 416 418 485 
3 417 416 628 
3 453 417 628 
3 644 453 630 
3 644 630 645 
3 414 645 483 
3 414 483 452 
3 646 452 633 
3 646 633 647 
3 413 647 648 
3 413 648 412 
3 412 649 411 
3 411 649 618 
3 618 482 410 
3 410 482 616 
3 616 480 408 
3 480 614 408 
3 614 637 407 
3 637 406 407 
3 406 639 405 
3 639 404 405 
3 404 477 650 
3 477 403 650 
3 652 651 403 
3 652 611 651 
3 642 401 611 
3 642 402 401 
3 643 653 402 
3 643 400 653 
3 528 654 446 
3 655 445 654 
3 655 656 445 
3 657 444 656 
3 656 397 658 
3 397 580 660 
3 659 660 711 
3 656 658 398 
3 398 660 659 
3 400 377 609 
3 609 440 379 
3 437 439 608 
3 438 437 555 
3 661 379 436 
3 661 436 610 
3 662 438 555 
3 435 662 664 
3 663 610 380 
3 663 380 612 
3 666 435 664 
3 665 666 558 
3 667 612 382 
3 667 382 613 
3 665 558 434 
3 668 434 561 
3 669 613 433 
3 669 433 384 
3 668 561 670 
3 432 670 671 
3 672 384 673 
3 672 673 385 
3 432 671 675 
3 674 675 566 
3 615 385 386 
3 615 386 676 
3 674 566 468 
3 431 468 570 
3 677 676 598 
3 677 598 409 
3 431 570 678 
3 678 375 430 
3 679 409 596 
3 596 617 679 
3 430 375 597 
3 597 567 429 
3 617 390 619 
3 390 680 619 
3 567 428 429 
3 428 466 426 
3 680 427 620 
3 427 621 620 
3 466 594 426 
3 594 563 683 
3 621 682 681 
3 682 392 681 
3 563 684 683 
3 684 463 425 
3 392 592 685 
3 592 393 685 
3 463 462 425 
3 462 560 424 
3 393 686 622 
3 686 415 622 
3 560 423 424 
3 557 422 423 
3 415 394 623 
3 394 624 623 
3 557 589 422 
3 460 421 589 
3 624 587 625 
3 587 626 625 
3 460 459 421 
3 550 687 688 
3 688 492 584 
3 459 689 586 
3 626 689 583 
3 626 583 690 
3 691 692 693 
3 694 582 692 
3 690 420 695 
3 488 444 657 
3 396 397 488 
3 420 457 695 
3 419 710 457 
3 489 580 397 
3 580 697 660 
3 577 696 697 
3 579 518 495 
3 699 702 497 
3 701 700 698 
3 499 698 699 
3 518 501 519 
3 501 700 701 
3 702 516 517 
3 502 576 703 
3 503 706 704 
3 576 503 705 
3 515 500 516 
3 704 706 515 
3 504 575 703 
3 505 509 510 
3 709 395 494 
3 709 495 521 
3 492 707 708 
3 584 709 419 
3 419 709 490 
3 419 490 710 
3 584 491 520 
3 584 520 709 
3 514 504 574 
3 511 507 514 
3 707 443 512 
3 573 443 604 
3 522 507 511 
3 509 506 522 
3 376 513 378 
3 513 442 378 
3 712 376 378 
3 711 712 377 
3 377 712 378 
3 513 604 442 
3 713 510 571 
3 714 571 712 
3 493 496 712 
3 714 496 715 
3 715 579 494 
3 494 713 715 
