ply
format ascii 1.0
comment VCGLIB generated
element vertex 121
property float x
property float y
property float z
element face 200
property list uchar int vertex_indices
end_header
-123.591 -123.591 -15.599 
-98.8725 -123.591 -15.599 
-74.1545 -123.591 -15.599 
-49.4364 -123.591 -15.599 
-24.7181 -123.591 -15.599 
0 -123.591 -15.599 
24.7181 -123.591 -15.599 
49.4364 -123.591 -15.599 
74.1545 -123.591 -15.599 
98.8725 -123.591 -15.599 
123.591 -123.591 -15.599 
-123.591 -98.8725 -15.599 
-98.8725 -98.8725 -15.599 
-74.1545 -98.8725 -15.599 
-49.4364 -98.8725 -15.599 
-24.7181 -98.8725 -15.599 
0 -98.8725 -15.599 
24.7181 -98.8725 -15.599 
49.4364 -98.8725 -15.599 
74.1545 -98.8725 -15.599 
98.8725 -98.8725 -15.599 
123.591 -98.8725 -15.599 
-123.591 -74.1545 -15.599 
-98.8725 -74.1545 -15.599 
-74.1545 -74.1545 -15.599 
-49.4364 -74.1545 -15.599 
-24.7181 -74.1545 -15.599 
0 -74.1545 -15.599 
24.7181 -74.1545 -15.599 
49.4364 -74.1545 -15.599 
74.1545 -74.1545 -15.599 
98.8725 -74.1545 -15.599 
123.591 -74.1545 -15.599 
-123.591 -49.4364 -15.599 
-98.8725 -49.4364 -15.599 
-74.1545 -49.4364 -15.599 
-49.4364 -49.4364 -15.599 
-24.7181 -49.4364 -15.599 
0 -49.4364 -15.599 
24.7181 -49.4364 -15.599 
49.4364 -49.4364 -15.599 
74.1545 -49.4364 -15.599 
98.8725 -49.4364 -15.599 
123.591 -49.4364 -15.599 
-123.591 -24.7181 -15.599 
-98.8725 -24.7181 -15.599 
-74.1545 -24.7181 -15.599 
-49.4364 -24.7181 -15.599 
-24.7181 -24.7181 -15.599 
0 -24.7181 -15.599 
24.7181 -24.7181 -15.599 
49.4364 -24.7181 -15.599 
74.1545 -24.7181 -15.599 
98.8725 -24.7181 -15.599 
123.591 -24.7181 -15.599 
-123.591 0 -15.599 
-98.8725 0 -15.599 
-74.1545 0 -15.599 
-49.4364 0 -15.599 
-24.7181 0 -15.599 
0 0 -15.599 
24.7181 0 -15.599 
49.4364 0 -15.599 
74.1545 0 -15.599 
98.8725 0 -15.599 
123.591 0 -15.599 
-123.591 24.7181 -15.599 
-98.8725 24.7181 -15.599 
-74.1545 24.7181 -15.599 
-49.4364 24.7181 -15.599 
-24.7181 24.7181 -15.599 
0 24.7181 -15.599 
24.7181 24.7181 -15.599 
49.4364 24.7181 -15.599 
74.1545 24.7181 -15.599 
98.8725 24.7181 -15.599 
123.591 24.7181 -15.599 
-123.591 49.4364 -15.599 
-98.8725 49.4364 -15.599 
-74.1545 49.4364 -15.599 
-49.4364 49.4364 -15.599 
-24.7181 49.4364 -15.599 
0 49.4364 -15.599 
24.7181 49.4364 -15.599 
49.4364 49.4364 -15.599 
74.1545 49.4364 -15.599 
98.8725 49.4364 -15.599 
123.591 49.4364 -15.599 
-123.591 74.1545 -15.599 
-98.8725 74.1545 -15.599 
-74.1545 74.1545 -15.599 
-49.4364 74.1545 -15.599 
-24.7181 74.1545 -15.599 
0 74.1545 -15.599 
24.7181 74.1545 -15.599 
49.4364 74.1545 -15.599 
74.1545 74.1545 -15.599 
98.8725 74.1545 -15.599 
123.591 74.1545 -15.599 
-123.591 98.8725 -15.599 
-98.8725 98.8725 -15.599 
-74.1545 98.8725 -15.599 
-49.4364 98.8725 -15.599 
-24.7181 98.8725 -15.599 
0 98.8725 -15.599 
24.7181 98.8725 -15.599 
49.4364 98.8725 -15.599 
74.1545 98.8725 -15.599 
98.8725 98.8725 -15.599 
123.591 98.8725 -15.599 
-123.591 123.591 -15.599 
-98.8725 123.591 -15.599 
-74.1545 123.591 -15.599 
-49.4364 123.591 -15.599 
-24.7181 123.591 -15.599 
0 123.591 -15.599 
24.7181 123.591 -15.599 
49.4364 123.591 -15.599 
74.1545 123.591 -15.599 
98.8725 123.591 -15.599 
123.591 123.591 -15.599 
3 1 12 0 
3 0 12 11 
3 13 1 2 
3 1 13 12 
3 14 2 3 
3 2 14 13 
3 4 15 3 
3 3 15 14 
3 5 16 4 
3 4 16 15 
3 6 17 5 
3 5 17 16 
3 7 18 6 
3 6 18 17 
3 8 19 7 
3 7 19 18 
3 9 20 8 
3 8 20 19 
3 21 9 10 
3 9 21 20 
3 23 11 12 
3 11 23 22 
3 13 24 12 
3 12 24 23 
3 25 13 14 
3 13 25 24 
3 15 26 14 
3 14 26 25 
3 16 27 15 
3 15 27 26 
3 17 28 16 
3 16 28 27 
3 18 29 17 
3 17 29 28 
3 19 30 18 
3 18 30 29 
3 20 31 19 
3 19 31 30 
3 21 32 20 
3 20 32 31 
3 34 22 23 
3 22 34 33 
3 35 23 24 
3 23 35 34 
3 25 36 24 
3 24 36 35 
3 26 37 25 
3 25 37 36 
3 27 38 26 
3 26 38 37 
3 28 39 27 
3 27 39 38 
3 29 40 28 
3 28 40 39 
3 30 41 29 
3 29 41 40 
3 31 42 30 
3 30 42 41 
3 32 43 31 
3 31 43 42 
3 34 45 33 
3 33 45 44 
3 35 46 34 
3 34 46 45 
3 36 47 35 
3 35 47 46 
3 37 48 36 
3 36 48 47 
3 38 49 37 
3 37 49 48 
3 39 50 38 
3 38 50 49 
3 40 51 39 
3 39 51 50 
3 41 52 40 
3 40 52 51 
3 53 41 42 
3 41 53 52 
3 43 54 42 
3 42 54 53 
3 45 56 44 
3 44 56 55 
3 46 57 45 
3 45 57 56 
3 47 58 46 
3 46 58 57 
3 48 59 47 
3 47 59 58 
3 49 60 48 
3 48 60 59 
3 50 61 49 
3 49 61 60 
3 51 62 50 
3 50 62 61 
3 52 63 51 
3 51 63 62 
3 64 52 53 
3 52 64 63 
3 54 65 53 
3 53 65 64 
3 56 67 55 
3 55 67 66 
3 57 68 56 
3 56 68 67 
3 58 69 57 
3 57 69 68 
3 59 70 58 
3 58 70 69 
3 60 71 59 
3 59 71 70 
3 61 72 60 
3 60 72 71 
3 62 73 61 
3 61 73 72 
3 63 74 62 
3 62 74 73 
3 75 63 64 
3 63 75 74 
3 65 76 64 
3 64 76 75 
3 67 78 66 
3 66 78 77 
3 68 79 67 
3 67 79 78 
3 69 80 68 
3 68 80 79 
3 81 69 70 
3 69 81 80 
3 82 70 71 
3 70 82 81 
3 83 71 72 
3 71 83 82 
3 84 72 73 
3 72 84 83 
3 74 85 73 
3 73 85 84 
3 86 74 75 
3 74 86 85 
3 76 87 75 
3 75 87 86 
3 89 77 78 
3 77 89 88 
3 90 78 79 
3 78 90 89 
3 80 91 79 
3 79 91 90 
3 81 92 80 
3 80 92 91 
3 82 93 81 
3 81 93 92 
3 83 94 82 
3 82 94 93 
3 84 95 83 
3 83 95 94 
3 85 96 84 
3 84 96 95 
3 86 97 85 
3 85 97 96 
3 87 98 86 
3 86 98 97 
3 100 88 89 
3 88 100 99 
3 90 101 89 
3 89 101 100 
3 102 90 91 
3 90 102 101 
3 92 103 91 
3 91 103 102 
3 93 104 92 
3 92 104 103 
3 94 105 93 
3 93 105 104 
3 95 106 94 
3 94 106 105 
3 96 107 95 
3 95 107 106 
3 97 108 96 
3 96 108 107 
3 98 109 97 
3 97 109 108 
3 100 111 99 
3 99 111 110 
3 112 100 101 
3 100 112 111 
3 113 101 102 
3 101 113 112 
3 103 114 102 
3 102 114 113 
3 104 115 103 
3 103 115 114 
3 105 116 104 
3 104 116 115 
3 106 117 105 
3 105 117 116 
3 107 118 106 
3 106 118 117 
3 108 119 107 
3 107 119 118 
3 120 108 109 
3 108 120 119 
